<?xml version="1.0" encoding="UTF-8"?>
<!-- Created with Inkscape (http://www.inkscape.org/) -->
<svg width="330.25" height="376.45" version="1.1" viewBox="0 0 330.25 376.45" xmlns="http://www.w3.org/2000/svg">
 <g transform="translate(-90.875 -67.776)" fill="#d4d236">
  <g transform="scale(.92876 1.0767)" fill="#d4d236" stroke-width="18.597" aria-label="w">
   <path d="m329.2 412.58q-8.1829-23.061-15.622-42.402-6.6951-19.341-13.39-37.195-5.9512-18.598-12.646-37.939-5.9512-20.085-12.646-43.89-7.439 23.805-13.39 43.146-5.9512 18.598-12.646 37.195-5.9512 18.598-12.646 37.939t-16.366 43.146h-69.183q-8.9268-32.732-17.11-72.158-7.439-40.171-14.134-84.805-6.6951-45.378-11.902-93.731t-9.6707-98.939h78.109q2.9756 64.719 5.9512 126.46 3.7195 61.744 12.646 127.21 9.6707-28.268 16.366-52.073 7.439-24.549 12.646-46.122 5.9512-22.317 10.415-42.402 5.2073-20.829 10.415-42.402h66.207q4.4634 21.573 8.9268 42.402 5.2073 20.085 10.415 42.402 5.9512 21.573 11.902 46.122 6.6951 23.805 15.622 52.073 4.4634-34.219 7.439-65.463t4.4634-61.744q2.2317-31.244 2.9756-61.744 1.4878-31.244 2.9756-64.719h78.11q-8.1829 101.91-23.061 191.93-14.134 90.012-31.988 157.71z" fill="#d4d236"/>
  </g>
 </g>
</svg>
